<?xml version="1.0" encoding="utf-8"?>
<!-- Generator: Adobe Illustrator 23.0.6, SVG Export Plug-In . SVG Version: 6.00 Build 0)  -->
<svg version="1.1" id="Ebene_1" xmlns="http://www.w3.org/2000/svg" xmlns:xlink="http://www.w3.org/1999/xlink" x="0px" y="0px"
	 width="256px" height="256px" viewBox="0 0 256 256" style="enable-background:new 0 0 256 256;" xml:space="preserve">
<style type="text/css">
	.st0{font-family:'HDADINOfficeBold';}
	.st1{font-size:92.4159px;}
	.st2{fill:#8C2828;stroke:#8C2828;stroke-width:4;stroke-miterlimit:10;}
	.st3{fill:none;stroke:#8C2828;stroke-width:4;stroke-miterlimit:10;}
	.st4{fill:#BA7E7E;}
	.st5{fill:#FFFFFF;}
</style>
<title>ext_icon</title>
<text transform="matrix(0.9997 0 0 1 20.5156 90.1368)" class="st0 st1">T</text>
<text transform="matrix(0.9997 0 0 1 72.4922 79.1085)" class="st0 st1">3</text>
<text transform="matrix(0.9997 0 0 1 121.3164 90.1368)" class="st0 st1">UP</text>
<path class="st2" d="M2,220.9C2,238.2,16.2,254,33.5,254l0,0h187.4c17.3,0,33.1-14.2,33.1-33.1l0,0V113.8H2C2,113.8,2,222.5,2,220.9
	z"/>
<path class="st3" d="M254,33.4c0-17.3-14.2-31.5-33.1-31.5l0,0H33.5C16.2,1.9,2,16.1,2,33.4v107.1h252V33.4z"/>
<g>
	<rect x="118.2" y="120.2" class="st4" width="34.5" height="122.1"/>
	<rect x="74.4" y="120.2" class="st4" width="34.5" height="122.1"/>
	<rect x="162" y="120.2" class="st4" width="34.5" height="122.1"/>
</g>
<path class="st5" d="M192.5,124.2v26.6H78.3v-26.6H192.5 M196.4,120.2H74.4v34.5h122.1V120.2L196.4,120.2z"/>
<path class="st5" d="M148.7,168v70.4H78.3V168H148.7 M152.7,164H74.4v78.3h78.3V164L152.7,164z"/>
<path class="st5" d="M192.5,168v70.4h-26.6V168H192.5 M196.4,164h-34.5v78.3h34.5V164L196.4,164z"/>
</svg>
