<?xml version="1.0" encoding="utf-8"?>
<!-- Generator: Adobe Illustrator 27.8.1, SVG Export Plug-In . SVG Version: 6.00 Build 0)  -->
<svg version="1.1" id="Ebene_1" xmlns="http://www.w3.org/2000/svg" xmlns:xlink="http://www.w3.org/1999/xlink" x="0px" y="0px"
	 viewBox="0 0 47.5 45.4" style="enable-background:new 0 0 47.5 45.4;" xml:space="preserve">
<style type="text/css">
	.st0{fill:#123B84;stroke:#FFFFFF;stroke-miterlimit:10;}
	.st1{fill:#FCFCFC;}
	.st2{fill:#FFFFFF;}
</style>
<path class="st0" d="M28.1,15.1h-8.4c-1.6,0-2.8-1.3-2.8-2.8V3.9c0-1.6,1.3-2.8,2.8-2.8h8.4c1.6,0,2.8,1.3,2.8,2.8v8.4
	C30.9,13.8,29.7,15.1,28.1,15.1z"/>
<path class="st0" d="M43.8,15.1h-8.4c-1.6,0-2.8-1.3-2.8-2.8V3.9c0-1.6,1.3-2.8,2.8-2.8h8.4c1.6,0,2.8,1.3,2.8,2.8v8.4
	C46.7,13.8,45.4,15.1,43.8,15.1z"/>
<path class="st0" d="M12.4,29.7H4c-1.6,0-2.8-1.3-2.8-2.8v-8.4c0-1.6,1.3-2.8,2.8-2.8h8.4c1.6,0,2.8,1.3,2.8,2.8v8.4
	C15.2,28.4,13.9,29.7,12.4,29.7z"/>
<path class="st0" d="M28.1,29.7h-8.4c-1.6,0-2.8-1.3-2.8-2.8v-8.4c0-1.6,1.3-2.8,2.8-2.8h8.4c1.6,0,2.8,1.3,2.8,2.8v8.4
	C30.9,28.4,29.7,29.7,28.1,29.7z"/>
<path class="st0" d="M43.8,29.7h-8.4c-1.6,0-2.8-1.3-2.8-2.8v-8.4c0-1.6,1.3-2.8,2.8-2.8h8.4c1.6,0,2.8,1.3,2.8,2.8v8.4
	C46.7,28.4,45.4,29.7,43.8,29.7z"/>
<path class="st0" d="M12.4,15.1H4c-1.6,0-2.8-1.3-2.8-2.8V3.9c0-1.6,1.3-2.8,2.8-2.8h8.4c1.6,0,2.8,1.3,2.8,2.8v8.4
	C15.2,13.8,13.9,15.1,12.4,15.1z"/>
<g>
	<path class="st1" d="M6.1,5.5v1c0,0.1,0,0.2-0.1,0.3C5.8,6.9,5.7,6.9,5.6,6.9H4c-0.1,0-0.2,0-0.3-0.1C3.5,6.7,3.5,6.6,3.5,6.5v-1
		c0-0.1,0-0.2,0.1-0.3C3.7,5.1,3.8,5,4,5h1.6c0.1,0,0.2,0,0.3,0.1C6,5.2,6.1,5.4,6.1,5.5z M6.1,8.1v1c0,0.1,0,0.2-0.1,0.3
		C5.8,9.5,5.7,9.5,5.6,9.5H4c-0.1,0-0.2,0-0.3-0.1C3.5,9.3,3.5,9.2,3.5,9V8c0-0.1,0-0.2,0.1-0.3C3.7,7.6,3.8,7.6,4,7.6h1.6
		c0.1,0,0.2,0,0.3,0.1C6,7.8,6.1,7.9,6.1,8.1z M6.1,10.6v1c0,0.1,0,0.2-0.1,0.3S5.8,12,5.7,12H4c-0.1,0-0.2,0-0.3-0.1
		s-0.1-0.2-0.1-0.3v-1c0-0.1,0-0.2,0.1-0.3s0.2-0.1,0.3-0.1h1.6c0.1,0,0.2,0,0.3,0.1C6,10.4,6.1,10.5,6.1,10.6z M12.5,5.5v1
		c0,0.1,0,0.2-0.1,0.3c-0.1,0.1-0.2,0.1-0.3,0.1H7.2c-0.2,0-0.3,0-0.4-0.1C6.7,6.7,6.7,6.6,6.7,6.5v-1c0-0.1,0-0.2,0.1-0.3
		C6.9,5.1,7,5,7.2,5H12c0.1,0,0.2,0,0.3,0.1S12.5,5.4,12.5,5.5z M12.5,8.1v1c0,0.1,0,0.2-0.1,0.3s-0.2,0.1-0.3,0.1H7.2
		c-0.1,0-0.2,0-0.3-0.1C6.7,9.3,6.7,9.2,6.7,9V8c0-0.1,0-0.2,0.1-0.3C6.9,7.6,7,7.6,7.2,7.6H12c0.1,0,0.2,0,0.3,0.1
		C12.4,7.8,12.5,7.9,12.5,8.1z M12.5,10.6v1c0,0.1,0,0.2-0.1,0.3S12.2,12,12.1,12H7.2c-0.1,0-0.2,0-0.3-0.1
		c-0.1-0.1-0.1-0.2-0.1-0.3v-1c0-0.1,0-0.2,0.1-0.3s0.2-0.1,0.3-0.1H12c0.1,0,0.2,0,0.3,0.1C12.4,10.4,12.5,10.5,12.5,10.6z"/>
</g>
<g>
	<path class="st1" d="M28.2,5.3v5.5c0,0.2-0.1,0.4-0.2,0.6c-0.2,0.2-0.3,0.2-0.6,0.2H20c-0.2,0-0.4-0.1-0.6-0.2
		c-0.2-0.2-0.2-0.3-0.2-0.6V5.3c0-0.2,0.1-0.4,0.2-0.6c0.2-0.2,0.3-0.2,0.6-0.2h7.4c0.2,0,0.4,0.1,0.6,0.2S28.2,5.1,28.2,5.3z
		 M27.5,5.5L27.5,5.5C27.5,5.4,27.5,5.4,27.5,5.5c0-0.1,0-0.1,0-0.2c0,0,0,0,0-0.1l0,0l0,0c0,0,0,0-0.1,0H20h-0.1v0.1
		c0,0.6,0.2,1,0.7,1.4c0.6,0.5,1.3,1,2,1.6c0,0,0.1,0.1,0.2,0.1C22.9,8.5,23,8.5,23,8.6c0,0.1,0.1,0.2,0.2,0.2
		c0.1,0.1,0.2,0.1,0.3,0.1c0.1,0,0.1,0,0.2,0l0,0l0,0c0.1,0,0.1,0,0.2,0s0.2-0.1,0.3-0.1c0.1-0.1,0.2-0.1,0.2-0.2
		c0.1,0,0.1-0.1,0.2-0.2c0.1-0.1,0.2-0.1,0.2-0.1c0.7-0.6,1.4-1.1,2-1.6c0.2-0.1,0.3-0.3,0.5-0.6S27.5,5.7,27.5,5.5z M27.5,10.8V6.9
		c-0.1,0.1-0.2,0.2-0.3,0.3c-0.9,0.7-1.6,1.3-2.1,1.7c-0.2,0.1-0.3,0.3-0.4,0.3c-0.1,0.1-0.3,0.2-0.4,0.2c-0.2,0.1-0.4,0.1-0.5,0.1
		l0,0l0,0c-0.2,0-0.3,0-0.5-0.1S23,9.2,22.9,9.2c-0.1-0.1-0.2-0.2-0.4-0.3c-0.5-0.4-1.2-1-2.1-1.7c-0.1-0.1-0.2-0.2-0.3-0.3v3.9v0.1
		h0.1h7.4h0.1C27.5,10.9,27.5,10.8,27.5,10.8z"/>
</g>
<g>
	<path class="st1" d="M43.4,8.1v1c0,0.1,0,0.2-0.1,0.3S43.1,9.5,43,9.5h-2.1v2.1c0,0.1,0,0.2-0.1,0.3S40.6,12,40.5,12h-1
		c-0.1,0-0.2,0-0.3-0.1s-0.1-0.2-0.1-0.3V9.5H37c-0.1,0-0.2,0-0.3-0.1s-0.1-0.2-0.1-0.3v-1c0-0.1,0-0.2,0.1-0.3
		c0.1-0.1,0.2-0.1,0.3-0.1h2.1V5.5c0-0.1,0-0.2,0.1-0.3c0.1-0.1,0.2-0.1,0.3-0.1h1c0.1,0,0.2,0,0.3,0.1s0.1,0.2,0.1,0.3v2.1H43
		c0.1,0,0.2,0,0.3,0.1C43.3,7.8,43.4,7.9,43.4,8.1z"/>
</g>
<g>
	<path class="st1" d="M11.4,24.7c0,0.1,0,0.2-0.1,0.3l-0.7,0.7c-0.1,0.1-0.2,0.1-0.3,0.1s-0.2,0-0.3-0.1l-1.6-1.4L7,25.8
		c-0.1,0.1-0.2,0.1-0.3,0.1s-0.2,0-0.3-0.1l-0.7-0.7c-0.1-0.1-0.1-0.2-0.1-0.3s0-0.2,0.1-0.3L7.2,23l-1.5-1.5
		c-0.1-0.1-0.1-0.2-0.1-0.3c0-0.1,0-0.2,0.1-0.3l0.7-0.7c0.1-0.1,0.2-0.1,0.3-0.1s0.2,0,0.3,0.1l1.5,1.5l1.5-1.5
		c0.1-0.1,0.2-0.1,0.3-0.1s0.2,0,0.3,0.1l0.7,0.7c0.1,0.1,0.1,0.2,0.1,0.3c0,0.1,0,0.2-0.1,0.3L9.8,23l1.5,1.5
		C11.4,24.5,11.4,24.6,11.4,24.7z"/>
</g>
<g>
	<path class="st1" d="M25.5,25.4V26c0,0.1,0,0.2-0.1,0.2s-0.1,0.1-0.2,0.1h-2.6c-0.1,0-0.2,0-0.2-0.1s-0.1-0.1-0.1-0.2v-0.6
		c0-0.1,0-0.2,0.1-0.2s0.1-0.1,0.2-0.1h0.3v-1.9h-0.3c-0.1,0-0.2,0-0.2-0.1s-0.1-0.1-0.1-0.2v-0.6c0-0.1,0-0.2,0.1-0.2
		s0.1-0.1,0.2-0.1h1.9c0.1,0,0.2,0,0.2,0.1s0.1,0.1,0.1,0.2v2.9h0.3c0.1,0,0.2,0,0.2,0.1S25.5,25.3,25.5,25.4z M24.9,19.7v1
		c0,0.1,0,0.2-0.1,0.2S24.7,21,24.6,21h-1.3c-0.1,0-0.2,0-0.2-0.1S23,20.8,23,20.7v-1c0-0.1,0-0.2,0.1-0.2s0.1-0.1,0.2-0.1h1.3
		c0.1,0,0.2,0,0.2,0.1S24.9,19.6,24.9,19.7z"/>
</g>
<g>
	<path class="st1" d="M43.5,20.2V25c0,0.4-0.1,0.7-0.4,1c-0.3,0.3-0.6,0.4-1,0.4h-4.8c-0.4,0-0.7-0.1-1-0.4s-0.4-0.6-0.4-1v-4.8
		c0-0.4,0.1-0.7,0.4-1c0.3-0.3,0.6-0.4,1-0.4h4.8c0.4,0,0.7,0.1,1,0.4S43.5,19.8,43.5,20.2z M42.3,22.9v-0.6c0-0.1,0-0.2-0.1-0.2
		S42.1,22,42,22h-4.5c-0.1,0-0.2,0-0.2,0.1s-0.1,0.1-0.1,0.2v0.6c0,0.1,0,0.2,0.1,0.2s0.1,0.1,0.2,0.1H42c0.1,0,0.2,0,0.2-0.1
		S42.3,23,42.3,22.9z"/>
</g>
<path class="st0" d="M12.4,44.6H4c-1.6,0-2.8-1.3-2.8-2.8v-8.4c0-1.6,1.3-2.8,2.8-2.8h8.4c1.6,0,2.8,1.3,2.8,2.8v8.4
	C15.2,43.3,13.9,44.6,12.4,44.6z"/>
<path class="st0" d="M28.1,44.6h-8.4c-1.6,0-2.8-1.3-2.8-2.8v-8.4c0-1.6,1.3-2.8,2.8-2.8h8.4c1.6,0,2.8,1.3,2.8,2.8v8.4
	C30.9,43.3,29.7,44.6,28.1,44.6z"/>
<path class="st0" d="M43.8,44.6h-8.4c-1.6,0-2.8-1.3-2.8-2.8v-8.4c0-1.6,1.3-2.8,2.8-2.8h8.4c1.6,0,2.8,1.3,2.8,2.8v8.4
	C46.7,43.3,45.4,44.6,43.8,44.6z"/>
<g>
	<path class="st2" d="M11.3,35.2c0.1,0.1,0.2,0.2,0.2,0.3c0.1,0.1,0.1,0.3,0.1,0.4V41c0,0.1,0,0.2-0.1,0.3s-0.2,0.1-0.3,0.1h-6
		c-0.1,0-0.2,0-0.3-0.1c-0.1-0.1-0.1-0.2-0.1-0.3v-7.1c0-0.1,0-0.2,0.1-0.3s0.2-0.1,0.3-0.1h4c0.1,0,0.2,0,0.4,0.1
		c0.1,0.1,0.3,0.1,0.3,0.2L11.3,35.2z M11,40.9v-4.5H9.2c-0.1,0-0.2,0-0.3-0.1S8.8,36.1,8.8,36v-1.8H5.4V41H11V40.9z M6.5,37.1
		L6.5,37.1L6.5,37.1L9.7,37h0.1v0.1v0.3v0.1H9.7H6.6H6.5v-0.1V37.1z M9.7,38.1h0.1v0.1v0.3v0.1H9.7H6.6H6.5v-0.1v-0.3v-0.1h0.1H9.7z
		 M9.7,39.2h0.1v0.1v0.3v0.1H9.7H6.6H6.5v-0.1v-0.3v-0.1h0.1H9.7z M9.3,34.2v1.6H11c0-0.1-0.1-0.1-0.1-0.2l-1.4-1.4
		C9.5,34.2,9.4,34.2,9.3,34.2z"/>
</g>
<g>
	<path class="st2" d="M27.4,35.4v4.2c0,0.3-0.1,0.6-0.4,0.9c-0.2,0.2-0.5,0.4-0.9,0.4h-4.2c-0.4,0-0.6-0.1-0.9-0.4
		c-0.2-0.2-0.4-0.5-0.4-0.9v-4.2c0-0.3,0.1-0.6,0.4-0.9c0.2-0.2,0.5-0.4,0.9-0.4h4.2c0.4,0,0.6,0.1,0.9,0.4
		C27.2,34.7,27.4,35,27.4,35.4z M27.1,39.6v-2.1H24v-3.1h-2.1c-0.3,0-0.5,0.1-0.7,0.3s-0.3,0.4-0.3,0.7v2.1H24v3.1h2.1
		c0.3,0,0.5-0.1,0.7-0.3C27,40.1,27.1,39.9,27.1,39.6z"/>
</g>
<g>
	<path class="st2" d="M44.8,35.9C44.8,36,44.8,36,44.8,35.9l-5,1.7l0,0l0,0l-2.9-0.9c-0.1,0.1-0.2,0.3-0.3,0.5s-0.1,0.5-0.2,0.8
		c0.2,0.1,0.3,0.3,0.3,0.5s-0.1,0.4-0.3,0.5l0.3,1.9V41h-0.1h-0.8h-0.1v-0.1L36,39c-0.2-0.1-0.3-0.3-0.3-0.5s0.1-0.4,0.3-0.5
		c0-0.6,0.2-1.1,0.4-1.5L34.9,36c-0.1,0-0.1-0.1-0.1-0.1c0-0.1,0-0.1,0.1-0.1l4.9-1.6l0,0l0,0l4.9,1.6
		C44.8,35.8,44.8,35.8,44.8,35.9z M42.5,37.3l0.1,1.4c0,0.2-0.1,0.4-0.4,0.6c-0.3,0.2-0.6,0.3-1,0.4s-1,0.1-1.5,0.1s-1-0.1-1.4-0.2
		s-0.8-0.2-1-0.4s-0.4-0.4-0.4-0.6l0.1-1.4l2.5,0.8c0.1,0,0.1,0,0.2,0s0.1,0,0.2,0L42.5,37.3z"/>
</g>
</svg>
