<?xml version="1.0" encoding="utf-8"?>
<!-- Generator: Adobe Illustrator 23.0.6, SVG Export Plug-In . SVG Version: 6.00 Build 0)  -->
<svg version="1.1" id="Ebene_1" xmlns="http://www.w3.org/2000/svg" xmlns:xlink="http://www.w3.org/1999/xlink" x="0px" y="0px"
	 width="198.4px" height="198.4px" viewBox="0 0 198.4 198.4" style="enable-background:new 0 0 198.4 198.4;" xml:space="preserve"
	>
<style type="text/css">
	.st0{fill:#303B80;}
	.st1{fill:#FFFFFF;stroke:#FFFFFF;stroke-width:4;stroke-miterlimit:10;}
	.st2{fill:none;stroke:#FFFFFF;stroke-width:4;stroke-miterlimit:10;}
</style>
<rect class="st0" width="198.4" height="198.4"/>
<rect x="73.2" y="-41.8" transform="matrix(6.123234e-17 -1 1 6.123234e-17 50.3909 146.2962)" class="st1" width="50.3" height="179.5"/>
<rect x="92.1" y="91" transform="matrix(6.123234e-17 -1 1 6.123234e-17 -82.4814 279.1685)" class="st2" width="12.5" height="179.6"/>
<rect x="92.1" y="68.1" transform="matrix(6.123234e-17 -1 1 6.123234e-17 -59.5056 256.1927)" class="st2" width="12.5" height="179.6"/>
<rect x="92.1" y="45.1" transform="matrix(6.123234e-17 -1 1 6.123234e-17 -36.5299 233.217)" class="st2" width="12.5" height="179.6"/>
<rect x="92.1" y="22.1" transform="matrix(6.123234e-17 -1 1 6.123234e-17 -13.5542 210.2412)" class="st2" width="12.5" height="179.6"/>
<rect x="92.1" y="-0.9" transform="matrix(6.123234e-17 -1 1 6.123234e-17 9.4216 187.2655)" class="st2" width="12.5" height="179.6"/>
<rect x="92.1" y="-73.3" transform="matrix(6.123234e-17 -1 1 6.123234e-17 81.8238 114.8633)" class="st2" width="12.5" height="179.6"/>
</svg>
