<?xml version="1.0" encoding="utf-8"?>
<!-- Generator: Adobe Illustrator 23.0.6, SVG Export Plug-In . SVG Version: 6.00 Build 0)  -->
<svg version="1.1" id="Ebene_1" xmlns="http://www.w3.org/2000/svg" xmlns:xlink="http://www.w3.org/1999/xlink" x="0px" y="0px"
	 viewBox="0 0 22.7 22.7" style="enable-background:new 0 0 22.7 22.7;" xml:space="preserve">
<style type="text/css">
	.st0{fill:#2E57A4;}
	.st1{fill:#FFFFFF;}
</style>
<path class="st0" d="M18.4,22.7H4.3c-2.4,0-4.3-1.9-4.3-4.3V4.3C0,1.9,1.9,0,4.3,0h14.1c2.4,0,4.3,1.9,4.3,4.3v14.1
	C22.7,20.8,20.8,22.7,18.4,22.7z"/>
<g>
	<path class="st1" d="M8,18v-0.7h1.7V4.6H9c-0.9,0-1.6,0.3-2.2,0.9c-0.5,0.6-1,1.6-1.4,3H4.8L5,4h13.1l0.2,4.5h-0.6
		c-0.4-1.4-0.9-2.4-1.4-3c-0.5-0.6-1.3-0.9-2.2-0.9h-0.8v12.7h1.7V18H8z"/>
</g>
</svg>
