<?xml version="1.0" encoding="utf-8"?>
<!-- Generator: Adobe Illustrator 23.0.6, SVG Export Plug-In . SVG Version: 6.00 Build 0)  -->
<svg version="1.1" id="Ebene_1" xmlns="http://www.w3.org/2000/svg" xmlns:xlink="http://www.w3.org/1999/xlink" x="0px" y="0px"
	 viewBox="0 0 22.7 22.7" style="enable-background:new 0 0 22.7 22.7;" xml:space="preserve">
<style type="text/css">
	.st0{fill:#233F97;}
	.st1{fill:#E3A829;}
	.st2{fill:#00AA7A;}
	.st3{fill:#CF1D5B;}
</style>
<path class="st0" d="M11.3,0h7.1c1.2,0,2.3,0.5,3,1.3c0.7,0.8,1.3,1.9,1.3,3.1v7H11.3"/>
<path class="st1" d="M0,11.3V4.3c0-1.2,0.5-2.3,1.3-3S3.1,0,4.3,0h7.1v11.3"/>
<path class="st2" d="M11.2,22.7h-7c-1.2,0-2.3-0.5-3-1.3c-0.7-0.8-1.3-1.8-1.3-3v-7.1h11.3"/>
<path class="st3" d="M22.7,11.3v7.1c0,1.2-0.5,2.3-1.3,3c-0.8,0.8-1.9,1.3-3.1,1.3h-7.1l0.1-11.3"/>
</svg>
