<?xml version="1.0" encoding="UTF-8"?>
<svg xmlns="http://www.w3.org/2000/svg" version="1.1" viewBox="0 0 22.7 22.7">
  <defs>
    <style>
      .cls-1, .cls-2 {
        fill: none;
        stroke: #000;
        stroke-miterlimit: 10;
      }

      .cls-3 {
        fill: #fff;
      }

      .cls-2 {
        stroke-width: .2px;
      }
    </style>
  </defs>
  <!-- Generator: Adobe Illustrator 28.7.1, SVG Export Plug-In . SVG Version: 1.2.0 Build 142)  -->
  <g>
    <g id="Ebene_1">
      <g>
        <path class="cls-3" d="M2,13.2v-3.3h-.7v-.3h.7v-1.5h1.6v1.5h1v.4h-1v3.3c0,.2,0,.3,0,.4s.2.1.3.1.3-.1.4-.2.2-.3.2-.5h.3c0,.4-.2.7-.5,1s-.7.4-1.2.4-.8-.1-.9-.2-.3-.6-.3-1.1Z"/>
        <path class="cls-3" d="M10.3,12.7h.3c-.2.7-.5,1.1-.9,1.3s-.9.4-1.5.4-1.5-.2-2-.7-.7-1-.7-1.8.3-1.3.8-1.8,1.2-.7,1.9-.7,1.3.2,1.7.6.6.9.6,1.6h0c0,.1-3.1.1-3.1.1v1.2c0,.5,0,.8.2.9s.4.3.7.3c.5,0,.9-.1,1.2-.4s.6-.5.8-1ZM7.4,11.4h1.6v-.9c0-.3-.1-.4-.2-.6s-.4-.2-.6-.2c-.3,0-.5.1-.6.2s-.2.3-.2.5v1Z"/>
        <path class="cls-3" d="M11,14.3v-.4h.3c.2,0,.3,0,.5-.1s.2-.1.3-.3l1.2-1.3-1.8-2.2h-.5v-.4h3.1v.4h-.6l.9,1.2.9-.9h.1v-.2h0c0-.1-.1-.1-.1-.1h-.5v-.4h2v.4h-.3c-.2,0-.3,0-.4.1s-.2.1-.3.3l-1,1.1,2,2.5h.5v.4h-3.3v-.4h.7l-1.1-1.4-1,1.1h0q-.1.1-.1.2s0,.1.1.1h.6v.4h-2.2Z"/>
        <path class="cls-3" d="M18.3,13.2v-3.3h-.7v-.3h.7v-1.5h1.6v1.5h1v.4h-1v3.3c0,.2,0,.3.1.4s.2.1.3.1.3-.1.4-.2.2-.3.2-.5h.3c0,.4-.2.7-.5,1s-.7.4-1.2.4-.8-.1-.9-.2-.3-.6-.3-1.1Z"/>
      </g>
      <g>
        <path d="M2.1,1.9h.4v2.7h1.3v.3h-1.7V1.9Z"/>
        <path d="M6.1,3.8c0,.8-.6,1.2-1.1,1.2s-1-.4-1-1.1.5-1.2,1.1-1.2,1.1.5,1.1,1.1ZM4.4,3.8c0,.5.3.8.7.8s.7-.4.7-.8-.2-.8-.7-.8-.7.4-.7.8Z"/>
        <path d="M6.6,3.4c0-.3,0-.5,0-.7h.3v.4h0c0-.3.3-.5.6-.5s0,0,.1,0v.4s0,0-.1,0c-.3,0-.5.2-.5.5,0,0,0,.1,0,.2v1.2h-.4v-1.5Z"/>
        <path d="M8.2,3.9c0,.5.4.8.8.8s.5,0,.6-.1v.3c0,0-.3.1-.7.1-.7,0-1.1-.4-1.1-1.1s.4-1.2,1-1.2.9.6.9,1,0,.1,0,.2h-1.5ZM9.4,3.6c0-.3-.1-.6-.6-.6s-.6.4-.6.6h1.2Z"/>
        <path d="M10.3,3.3c0-.2,0-.4,0-.6h.3v.4h0c.1-.2.3-.4.7-.4s.5.2.6.4h0c0-.1.2-.2.2-.3.1,0,.3-.2.5-.2s.7.2.7.9v1.3h-.4v-1.2c0-.4-.2-.7-.5-.7s-.4.2-.5.4c0,0,0,.1,0,.2v1.4h-.4v-1.3c0-.3-.2-.6-.5-.6s-.4.2-.5.4c0,0,0,.1,0,.2v1.3h-.4v-1.6Z"/>
      </g>
      <rect class="cls-2" width="22.7" height="22.7"/>
      <line class="cls-1" x1=".4" y1=".1" x2=".4" y2="22.7"/>
      <g>
        <path d="M2.2,6.9v1.3h-.2v-1.3h.2Z"/>
        <path d="M2.5,7.5c0-.1,0-.2,0-.3h.2v.2h0c0,0,.1-.2.3-.2s.2,0,.3.2h0c0,0,0,0,.1-.1,0,0,.1,0,.2,0s.3,0,.3.4v.6h-.2v-.5c0-.2,0-.3-.2-.3s-.2,0-.2.2c0,0,0,0,0,0v.6h-.2v-.6c0-.2,0-.3-.2-.3s-.2,0-.2.2c0,0,0,0,0,0v.6h-.2v-.7Z"/>
        <path d="M4.2,7.6c0-.1,0-.2,0-.3h.2v.2h0c0-.1.2-.2.3-.2.2,0,.4.2.4.5s-.2.5-.4.5-.2,0-.3-.2h0v.5h-.2v-1ZM4.4,7.8s0,0,0,0c0,.1.1.2.3.2.2,0,.3-.2.3-.4s-.1-.4-.3-.4-.2,0-.3.2c0,0,0,0,0,0v.2Z"/>
        <path d="M5.4,7.8c0,.2.2.3.3.3s.2,0,.3,0h0c0,.2-.2.2-.3.2-.3,0-.5-.2-.5-.5s.2-.5.5-.5.4.3.4.5,0,0,0,0h-.7ZM6,7.6c0-.1,0-.3-.2-.3s-.3.2-.3.3h.5Z"/>
        <path d="M6.4,7.5c0-.1,0-.2,0-.3h.2v.2h0c0-.1.1-.2.3-.2s0,0,0,0v.2s0,0,0,0c-.1,0-.2,0-.2.2,0,0,0,0,0,0v.5h-.2v-.7Z"/>
        <path d="M7.8,6.8v1.2c0,0,0,.2,0,.2h-.2v-.2h0c0,.1-.2.2-.3.2-.2,0-.4-.2-.4-.5,0-.3.2-.5.4-.5s.2,0,.3.1h0v-.6h.2ZM7.6,7.6s0,0,0,0c0-.1-.1-.2-.3-.2s-.3.2-.3.4,0,.4.3.4.2,0,.3-.2c0,0,0,0,0,0v-.2Z"/>
        <path d="M8.3,7c0,0,0,.1-.1.1s-.1,0-.1-.1,0-.1.1-.1.1,0,.1.1ZM8.1,8.2v-1h.2v1h-.2Z"/>
        <path d="M8.7,7.8c0,.2.2.3.3.3s.2,0,.3,0h0c0,.2-.2.2-.3.2-.3,0-.5-.2-.5-.5s.2-.5.5-.5.4.3.4.5,0,0,0,0h-.7ZM9.2,7.6c0-.1,0-.3-.2-.3s-.3.2-.3.3h.5Z"/>
        <path d="M9.8,7v.3h.3c0,.1-.3.1-.3.1v.5c0,.1,0,.2.1.2s0,0,.1,0h0c0,.1,0,.2-.2.2s-.1,0-.2,0c0,0,0-.1,0-.3v-.5h-.1c0-.1.1-.1.1-.1v-.2h.2Z"/>
        <path d="M10.7,7.5c0-.1,0-.2,0-.3h.2v.2h0c0,0,.2-.2.3-.2s.3,0,.3.4v.6h-.2v-.6c0-.2,0-.3-.2-.3s-.2,0-.2.2c0,0,0,0,0,0v.6h-.2v-.7Z"/>
        <path d="M12.6,7.9c0,0,0,.2,0,.3h-.2v-.2h0c0,0-.1.2-.3.2s-.3,0-.3-.4v-.6h.2v.5c0,.2,0,.3.2.3s.2,0,.2-.2c0,0,0,0,0,0v-.6h.2v.7Z"/>
        <path d="M12.9,6.8h.2v1.4h-.2v-1.4Z"/>
        <path d="M13.4,6.8h.2v1.4h-.2v-1.4Z"/>
        <path d="M14.4,8.2h0c0-.1,0-.1,0-.1,0,0-.2.1-.3.1-.2,0-.3-.1-.3-.3,0-.2.2-.4.6-.4h0c0-.1,0-.2-.2-.2s-.2,0-.3,0h0c0-.2.2-.2.3-.2.3,0,.4.2.4.4v.4c0,0,0,.2,0,.2h-.2ZM14.3,7.7c-.2,0-.4,0-.4.2s0,.2.2.2.2,0,.2-.2c0,0,0,0,0,0v-.2Z"/>
        <path d="M2,10c0-.1,0-.2,0-.3h.2v.2h0c0-.1.2-.2.3-.2.2,0,.4.2.4.5s-.2.5-.4.5-.2,0-.3-.2h0v.5h-.2v-1ZM2.2,10.2s0,0,0,0c0,.1.1.2.3.2.2,0,.3-.2.3-.4s-.1-.4-.3-.4-.2,0-.3.2c0,0,0,0,0,0v.2Z"/>
        <path d="M3.3,10.2c0,.2.2.3.3.3s.2,0,.3,0h0c0,.2-.2.2-.3.2-.3,0-.5-.2-.5-.5s.2-.5.5-.5.4.3.4.5,0,0,0,0h-.7ZM3.8,10c0-.1,0-.3-.2-.3s-.3.2-.3.3h.5Z"/>
        <path d="M4.2,9.2h.2v1.4h-.2v-1.4Z"/>
        <path d="M4.7,9.2h.2v1.4h-.2v-1.4Z"/>
        <path d="M5.2,10.2c0,.2.2.3.3.3s.2,0,.3,0h0c0,.2-.2.2-.3.2-.3,0-.5-.2-.5-.5s.2-.5.5-.5.4.3.4.5,0,0,0,0h-.7ZM5.7,10c0-.1,0-.3-.2-.3s-.3.2-.3.3h.5Z"/>
        <path d="M6.1,9.9c0-.1,0-.2,0-.3h.2v.2h0c0,0,.2-.2.3-.2s.3,0,.3.4v.6h-.2v-.6c0-.2,0-.3-.2-.3s-.2,0-.2.2c0,0,0,0,0,0v.6h-.2v-.7Z"/>
        <path d="M7.4,9.4v.3h.3c0,.1-.3.1-.3.1v.5c0,.1,0,.2.1.2s0,0,.1,0h0c0,.1,0,.2-.2.2s-.1,0-.2,0c0,0,0-.1,0-.3v-.5h-.1c0-.1.1-.1.1-.1v-.2h.2Z"/>
        <path d="M8,10.2c0,.2.2.3.3.3s.2,0,.3,0h0c0,.2-.2.2-.3.2-.3,0-.5-.2-.5-.5s.2-.5.5-.5.4.3.4.5,0,0,0,0h-.7ZM8.5,10c0-.1,0-.3-.2-.3s-.3.2-.3.3h.5Z"/>
        <path d="M8.9,10.4c0,0,.1,0,.2,0,.1,0,.2,0,.2-.1s0-.1-.2-.2c-.2,0-.3-.2-.3-.3s.1-.3.3-.3.2,0,.2,0h0c0,.1-.1,0-.2,0s-.2,0-.2.1,0,.1.2.2c.2,0,.3.1.3.3s-.1.3-.4.3-.2,0-.3,0h0Z"/>
        <path d="M10.3,10.5h0c0,0-.2.2-.3.2-.2,0-.4-.2-.4-.5s.2-.5.4-.5.2,0,.3.2h0c0-.1.2-.1.2-.1,0,0,0,.2,0,.3v1.1h-.2v-.5ZM10.3,10s0,0,0,0c0-.1-.1-.2-.3-.2s-.3.2-.3.4,0,.4.3.4.2,0,.3-.2c0,0,0,0,0,0v-.2Z"/>
        <path d="M11.6,10.3c0,0,0,.2,0,.3h-.2v-.2h0c0,0-.1.2-.3.2s-.3,0-.3-.4v-.6h.2v.5c0,.2,0,.3.2.3s.2,0,.2-.2c0,0,0,0,0,0v-.6h.2v.7Z"/>
        <path d="M12,10.2c0,.2.2.3.3.3s.2,0,.3,0h0c0,.2-.2.2-.3.2-.3,0-.5-.2-.5-.5s.2-.5.5-.5.4.3.4.5,0,0,0,0h-.7ZM12.5,10c0-.1,0-.3-.2-.3s-.3.2-.3.3h.5Z"/>
        <path d="M13.4,10.2c0,.2.2.3.3.3s.2,0,.3,0h0c0,.2-.2.2-.3.2-.3,0-.5-.2-.5-.5s.2-.5.5-.5.4.3.4.5,0,0,0,0h-.7ZM13.9,10c0-.1,0-.3-.2-.3s-.3.2-.3.3h.5Z"/>
        <path d="M14.3,9.2h.2v1.4h-.2v-1.4Z"/>
        <path d="M15,9.4c0,0,0,.1-.1.1s-.1,0-.1-.1,0-.1.1-.1.1,0,.1.1ZM14.8,10.6v-1h.2v1h-.2Z"/>
        <path d="M15.5,9.4v.3h.3c0,.1-.3.1-.3.1v.5c0,.1,0,.2.1.2s0,0,.1,0h0c0,.1,0,.2-.2.2s-.1,0-.2,0c0,0,0-.1,0-.3v-.5h-.1c0-.1.1-.1.1-.1v-.2h.2Z"/>
        <path d="M16.5,10.2c0,.2.2.3.3.3s.2,0,.3,0h0c0,.2-.2.2-.3.2-.3,0-.5-.2-.5-.5s.2-.5.5-.5.4.3.4.5,0,0,0,0h-.7ZM17,10c0-.1,0-.3-.2-.3s-.3.2-.3.3h.5Z"/>
        <path d="M18.2,9.6c0,0,0,.1,0,.3v.6c0,.2,0,.4-.1.4,0,0-.2.1-.4.1s-.2,0-.3,0h0c0,0,.2,0,.3,0,.2,0,.3,0,.3-.3h0c0-.1,0-.1,0-.1,0,0-.2.2-.3.2-.2,0-.4-.2-.4-.5s.2-.5.4-.5.3,0,.3.2h0c0-.1.2-.1.2-.1ZM18,10s0,0,0,0c0-.1-.1-.2-.2-.2s-.3.1-.3.4,0,.3.3.3.2,0,.2-.2c0,0,0,0,0,0v-.2Z"/>
        <path d="M18.6,10.2c0,.2.2.3.3.3s.2,0,.3,0h0c0,.2-.2.2-.3.2-.3,0-.5-.2-.5-.5s.2-.5.5-.5.4.3.4.5,0,0,0,0h-.7ZM19.1,10c0-.1,0-.3-.2-.3s-.3.2-.3.3h.5Z"/>
        <path d="M19.7,9.4v.3h.3c0,.1-.3.1-.3.1v.5c0,.1,0,.2.1.2s0,0,.1,0h0c0,.1,0,.2-.2.2s-.1,0-.2,0c0,0,0-.1,0-.3v-.5h-.1c0-.1.1-.1.1-.1v-.2h.2Z"/>
        <path d="M20.1,10.5c0,0,0-.1.1-.1s.1,0,.1.1,0,.1-.1.1-.1,0-.1-.1Z"/>
        <path d="M2.7,12.4h-.5v.5h.6c0,.1-.8.1-.8.1v-1.3h.7c0,.1-.6.1-.6.1v.4h.5Z"/>
        <path d="M3,12.3c0,0,0-.2,0-.3h.2v.2h0c0,0,.2-.2.3-.2s.3,0,.3.4v.6h-.2v-.6c0-.2,0-.3-.2-.3s-.2,0-.2.2c0,0,0,0,0,0v.6h-.2v-.7Z"/>
        <path d="M4.3,11.8c0,0,0,.1-.1.1s-.1,0-.1-.1,0-.1.1-.1.1,0,.1.1ZM4.1,13v-1h.2v1h-.2Z"/>
        <path d="M4.6,12.3c0,0,0-.2,0-.3h.2v.2h0c0,0,.1-.2.3-.2s.2,0,.3.2h0c0,0,0,0,.1-.1,0,0,.1,0,.2,0s.3,0,.3.4v.6h-.2v-.5c0-.2,0-.3-.2-.3s-.2,0-.2.2c0,0,0,0,0,0v.6h-.2v-.6c0-.2,0-.3-.2-.3s-.2,0-.2.2c0,0,0,0,0,0v.6h-.2v-.7Z"/>
        <path d="M6.7,11.6h.2v1.4h-.2v-1.4Z"/>
        <path d="M8,12.5c0,.4-.2.5-.5.5s-.5-.2-.5-.5.2-.5.5-.5.5.2.5.5ZM7.3,12.5c0,.2.1.4.3.4s.3-.2.3-.4,0-.4-.3-.4-.3.2-.3.4Z"/>
        <path d="M8.3,13c0,0,0-.2,0-.2v-1.2h.2v.6h0c0-.1.2-.2.3-.2.2,0,.4.2.4.5,0,.3-.2.5-.4.5s-.3,0-.3-.2h0v.2h-.2ZM8.4,12.6s0,0,0,0c0,.1.1.2.3.2.2,0,.3-.1.3-.4s-.1-.4-.3-.4-.2,0-.3.2c0,0,0,0,0,0v.2Z"/>
        <path d="M10.3,12.5c0,.4-.2.5-.5.5s-.5-.2-.5-.5.2-.5.5-.5.5.2.5.5ZM9.5,12.5c0,.2.1.4.3.4s.3-.2.3-.4,0-.4-.3-.4-.3.2-.3.4Z"/>
        <path d="M10.5,12.3c0-.1,0-.2,0-.3h.2v.2h0c0-.1.1-.2.3-.2s0,0,0,0v.2s0,0,0,0c-.1,0-.2,0-.2.2,0,0,0,0,0,0v.5h-.2v-.7Z"/>
        <path d="M11.4,11.8v.3h.3c0,.1-.3.1-.3.1v.5c0,.1,0,.2.1.2s0,0,.1,0h0c0,.1,0,.2-.2.2s-.1,0-.2,0c0,0,0-.1,0-.3v-.5h-.1c0-.1.1-.1.1-.1v-.2h.2Z"/>
        <path d="M12.1,11.8c0,0,0,.1-.1.1s-.1,0-.1-.1,0-.1.1-.1.1,0,.1.1ZM11.9,13v-1h.2v1h-.2Z"/>
        <path d="M12.3,12.8c0,0,.1,0,.2,0,.1,0,.2,0,.2-.1s0-.1-.2-.2c-.2,0-.3-.2-.3-.3s.1-.3.3-.3.2,0,.2,0h0c0,.1-.1,0-.2,0s-.2,0-.2.1,0,.1.2.2c.2,0,.3.1.3.3s-.1.3-.4.3-.2,0-.3,0h0Z"/>
        <path d="M13.5,12.8c0,0,.1,0,.2,0,.1,0,.2,0,.2-.1s0-.1-.2-.2c-.2,0-.3-.2-.3-.3s.1-.3.3-.3.2,0,.2,0h0c0,.1-.1,0-.2,0s-.2,0-.2.1,0,.1.2.2c.2,0,.3.1.3.3s-.1.3-.4.3-.2,0-.3,0h0Z"/>
        <path d="M15,13s-.1,0-.3,0c-.3,0-.5-.2-.5-.5s.2-.5.5-.5.2,0,.2,0h0c0,.1-.1,0-.2,0-.2,0-.3.2-.3.4s.1.4.3.4.2,0,.2,0h0Z"/>
        <path d="M15.3,12.6c0,.2.2.3.3.3s.2,0,.3,0h0c0,.2-.2.2-.3.2-.3,0-.5-.2-.5-.5s.2-.5.5-.5.4.3.4.5,0,0,0,0h-.7ZM15.8,12.4c0-.1,0-.3-.2-.3s-.3.2-.3.3h.5Z"/>
        <path d="M16.2,11.6h.2v1.4h-.2v-1.4Z"/>
        <path d="M16.8,12.6c0,.2.2.3.3.3s.2,0,.3,0h0c0,.2-.2.2-.3.2-.3,0-.5-.2-.5-.5s.2-.5.5-.5.4.3.4.5,0,0,0,0h-.7ZM17.3,12.4c0-.1,0-.3-.2-.3s-.3.2-.3.3h.5Z"/>
        <path d="M17.7,12.3c0-.1,0-.2,0-.3h.2v.2h0c0-.1.2-.2.3-.2s0,0,0,0v.2s0,0,0,0c-.1,0-.2,0-.2.2,0,0,0,0,0,0v.5h-.2v-.7Z"/>
        <path d="M18.6,11.8c0,0,0,.1-.1.1s-.1,0-.1-.1,0-.1.1-.1.1,0,.1.1ZM18.4,13v-1h.2v1h-.2Z"/>
        <path d="M18.8,12.8c0,0,.1,0,.2,0,.1,0,.2,0,.2-.1s0-.1-.2-.2c-.2,0-.3-.2-.3-.3s.1-.3.3-.3.2,0,.2,0h0c0,.1-.1,0-.2,0s-.2,0-.2.1,0,.1.2.2c.2,0,.3.1.3.3s-.1.3-.4.3-.2,0-.3,0h0Z"/>
        <path d="M2.9,14v1.2c0,0,0,.2,0,.2h-.2v-.2h0c0,.1-.2.2-.3.2-.2,0-.4-.2-.4-.5,0-.3.2-.5.4-.5s.2,0,.3.1h0v-.6h.2ZM2.7,14.8s0,0,0,0c0-.1-.1-.2-.3-.2s-.3.2-.3.4,0,.4.3.4.2,0,.3-.2c0,0,0,0,0,0v-.2Z"/>
        <path d="M4,15.1c0,0,0,.2,0,.3h-.2v-.2h0c0,0-.1.2-.3.2s-.3,0-.3-.4v-.6h.2v.5c0,.2,0,.3.2.3s.2,0,.2-.2c0,0,0,0,0,0v-.6h.2v.7Z"/>
        <path d="M4.5,14.2c0,0,0,.1-.1.1s-.1,0-.1-.1,0-.1.1-.1.1,0,.1.1ZM4.3,15.4v-1h.2v1h-.2Z"/>
        <path d="M5.2,15.4v-.8h-.1c0-.1.1-.1.1-.1h0c0-.2,0-.3.1-.4,0,0,.2,0,.2,0s.1,0,.1,0h0c0,.1,0,.1-.1.1-.1,0-.2.1-.2.3h0c0,0,.2,0,.2,0h0c0,.1-.2.1-.2.1v.8h-.2Z"/>
        <path d="M6.3,15.4h0c0-.1,0-.1,0-.1,0,0-.2.1-.3.1-.2,0-.3-.1-.3-.3,0-.2.2-.4.6-.4h0c0-.1,0-.2-.2-.2s-.2,0-.3,0h0c0-.2.2-.2.3-.2.3,0,.4.2.4.4v.4c0,0,0,.2,0,.2h-.2ZM6.3,14.9c-.2,0-.4,0-.4.2s0,.2.2.2.2,0,.2-.2c0,0,0,0,0,0v-.2Z"/>
        <path d="M7.5,15.1c0,0,0,.2,0,.3h-.2v-.2h0c0,0-.1.2-.3.2s-.3,0-.3-.4v-.6h.2v.5c0,.2,0,.3.2.3s.2,0,.2-.2c0,0,0,0,0,0v-.6h.2v.7Z"/>
        <path d="M8.5,15.4s-.1,0-.3,0c-.3,0-.5-.2-.5-.5s.2-.5.5-.5.2,0,.2,0h0c0,.1-.1,0-.2,0-.2,0-.3.2-.3.4s.1.4.3.4.2,0,.2,0h0Z"/>
        <path d="M8.9,14.2c0,0,0,.1-.1.1s-.1,0-.1-.1,0-.1.1-.1.1,0,.1.1ZM8.7,15.4v-1h.2v1h-.2Z"/>
        <path d="M9.2,15.4c0,0,0-.2,0-.2v-1.2h.2v.6h0c0-.1.2-.2.3-.2.2,0,.4.2.4.5,0,.3-.2.5-.4.5s-.3,0-.3-.2h0v.2h-.2ZM9.4,15s0,0,0,0c0,.1.1.2.3.2.2,0,.3-.1.3-.4s-.1-.4-.3-.4-.2,0-.3.2c0,0,0,0,0,0v.2Z"/>
        <path d="M11.1,15.1c0,0,0,.2,0,.3h-.2v-.2h0c0,0-.1.2-.3.2s-.3,0-.3-.4v-.6h.2v.5c0,.2,0,.3.2.3s.2,0,.2-.2c0,0,0,0,0,0v-.6h.2v.7Z"/>
        <path d="M11.4,15.2c0,0,.1,0,.2,0,.1,0,.2,0,.2-.1s0-.1-.2-.2c-.2,0-.3-.2-.3-.3s.1-.3.3-.3.2,0,.2,0h0c0,.1-.1,0-.2,0s-.2,0-.2.1,0,.1.2.2c.2,0,.3.1.3.3s-.1.3-.4.3-.2,0-.3,0h0Z"/>
        <path d="M12.8,14.2c0,0,0,.1-.1.1s-.1,0-.1-.1,0-.1.1-.1.1,0,.1.1ZM12.6,15.4v-1h.2v1h-.2Z"/>
        <path d="M13.1,14.7c0,0,0-.2,0-.3h.2v.2h0c0,0,.2-.2.3-.2s.3,0,.3.4v.6h-.2v-.6c0-.2,0-.3-.2-.3s-.2,0-.2.2c0,0,0,0,0,0v.6h-.2v-.7Z"/>
        <path d="M15.5,14.9c0,.4-.2.5-.5.5s-.5-.2-.5-.5.2-.5.5-.5.5.2.5.5ZM14.7,14.9c0,.2.1.4.3.4s.3-.2.3-.4,0-.4-.3-.4-.3.2-.3.4Z"/>
        <path d="M15.7,14.7c0-.1,0-.2,0-.3h.2v.2h0c0-.1.2-.2.3-.2s0,0,0,0v.2s0,0,0,0c-.1,0-.2,0-.2.2,0,0,0,0,0,0v.5h-.2v-.7Z"/>
        <path d="M16.4,14.7c0,0,0-.2,0-.3h.2v.2h0c0,0,.2-.2.3-.2s.3,0,.3.4v.6h-.2v-.6c0-.2,0-.3-.2-.3s-.2,0-.2.2c0,0,0,0,0,0v.6h-.2v-.7Z"/>
        <path d="M18,15.4h0c0-.1,0-.1,0-.1,0,0-.2.1-.3.1-.2,0-.3-.1-.3-.3,0-.2.2-.4.6-.4h0c0-.1,0-.2-.2-.2s-.2,0-.3,0h0c0-.2.2-.2.3-.2.3,0,.4.2.4.4v.4c0,0,0,.2,0,.2h-.2ZM18,14.9c-.2,0-.4,0-.4.2s0,.2.2.2.2,0,.2-.2c0,0,0,0,0,0v-.2Z"/>
        <path d="M18.5,14.7c0-.1,0-.2,0-.3h.2v.2h0c0-.1.2-.2.3-.2s0,0,0,0v.2s0,0,0,0c-.1,0-.2,0-.2.2,0,0,0,0,0,0v.5h-.2v-.7Z"/>
        <path d="M19.2,15c0,.2.2.3.3.3s.2,0,.3,0h0c0,.2-.2.2-.3.2-.3,0-.5-.2-.5-.5s.2-.5.5-.5.4.3.4.5,0,0,0,0h-.7ZM19.7,14.8c0-.1,0-.3-.2-.3s-.3.2-.3.3h.5Z"/>
        <path d="M20,15.3c0,0,0-.1.1-.1s.1,0,.1.1,0,.1-.1.1-.1,0-.1-.1Z"/>
      </g>
      <line class="cls-2" x1="15.7" y1="19.5" x2="19.9" y2="19.5"/>
      <line class="cls-2" x1="18.6" y1="18.3" x2="19.8" y2="19.5"/>
      <line class="cls-2" x1="19.8" y1="19.6" x2="18.6" y2="20.7"/>
    </g>
  </g>
</svg>