<?xml version="1.0" encoding="utf-8"?>
<!-- Generator: Adobe Illustrator 23.0.6, SVG Export Plug-In . SVG Version: 6.00 Build 0)  -->
<svg version="1.1" id="Ebene_1" xmlns="http://www.w3.org/2000/svg" xmlns:xlink="http://www.w3.org/1999/xlink" x="0px" y="0px"
	 viewBox="0 0 22.7 22.7" style="enable-background:new 0 0 22.7 22.7;" xml:space="preserve">
<style type="text/css">
	.st0{fill:#016801;}
	.st1{fill:#FFFFFF;}
</style>
<path class="st0" d="M18.4,22.7H4.3c-2.4,0-4.3-1.9-4.3-4.3V4.3C0,1.9,1.9,0,4.3,0h14.1c2.4,0,4.3,1.9,4.3,4.3v14.1
	C22.7,20.8,20.8,22.7,18.4,22.7z"/>
<g>
	<path class="st1" d="M2,13.2V9.9H1.3V9.6H2V8.1c0.1,0,0.2,0,0.3,0s0.2,0,0.4,0c0.2,0,0.3,0,0.5,0s0.3,0,0.4,0v1.5h1v0.4h-1v3.3
		c0,0.2,0,0.3,0.1,0.4s0.2,0.1,0.3,0.1s0.3-0.1,0.4-0.2s0.2-0.3,0.2-0.5h0.3c0,0.4-0.2,0.7-0.5,1s-0.7,0.4-1.2,0.4
		c-0.5,0-0.8-0.1-0.9-0.2S2,13.7,2,13.2z"/>
	<path class="st1" d="M10.3,12.7l0.3,0.1c-0.2,0.6-0.5,1-0.9,1.2s-0.9,0.4-1.5,0.4c-0.8,0-1.5-0.2-2-0.7s-0.7-1-0.7-1.8
		c0-0.7,0.3-1.3,0.8-1.8s1.2-0.7,1.9-0.7c0.7,0,1.3,0.2,1.7,0.6s0.6,0.9,0.6,1.6v0.1H7.4v1.2c0,0.5,0.1,0.8,0.2,0.9s0.4,0.3,0.7,0.3
		c0.5,0,0.9-0.1,1.2-0.4S10.1,13.2,10.3,12.7z M7.4,11.4H9v-0.9c0-0.3-0.1-0.4-0.2-0.6S8.4,9.7,8.2,9.7c-0.3,0-0.5,0.1-0.6,0.2
		s-0.2,0.3-0.2,0.5V11.4z"/>
	<path class="st1" d="M11,14.3v-0.4h0.3c0.2,0,0.3,0,0.5-0.1s0.2-0.1,0.3-0.3l1.2-1.3L11.5,10H11V9.6h3.1V10h-0.6l0.9,1.2l0.9-0.9
		c0,0,0.1-0.1,0.1-0.1s0,0,0-0.1c0,0,0-0.1,0-0.1s-0.1,0-0.1,0h-0.5V9.6h2V10h-0.3c-0.2,0-0.3,0-0.4,0.1s-0.2,0.1-0.3,0.3l-1,1.1
		l2,2.5h0.5v0.4H14v-0.4h0.7l-1.1-1.4l-1,1.1c0,0,0,0,0,0c-0.1,0.1-0.1,0.1-0.1,0.2c0,0,0,0.1,0.1,0.1s0.1,0,0.2,0h0.4v0.4H11z"/>
	<path class="st1" d="M18.3,13.2V9.9h-0.7V9.6h0.7V8.1c0.1,0,0.2,0,0.3,0s0.2,0,0.4,0c0.2,0,0.3,0,0.5,0s0.3,0,0.4,0v1.5h1v0.4h-1
		v3.3c0,0.2,0,0.3,0.1,0.4s0.2,0.1,0.3,0.1s0.3-0.1,0.4-0.2s0.2-0.3,0.2-0.5h0.3c0,0.4-0.2,0.7-0.5,1s-0.7,0.4-1.2,0.4
		c-0.5,0-0.8-0.1-0.9-0.2S18.3,13.7,18.3,13.2z"/>
</g>
</svg>
